<mxfile host="app.diagrams.net" modified="2024-04-17T14:11:20.035Z" agent="Mozilla/5.0 (Windows NT 10.0; Win64; x64) AppleWebKit/537.36 (KHTML, like Gecko) Chrome/123.0.0.0 Safari/537.36" etag="ua8fpj97HuG7YS1wMfZE" version="24.2.5" type="device">
  <diagram name="Страница — 1" id="mwlBPmAQJBPNagb8lEAS">
    <mxGraphModel dx="712" dy="775" grid="1" gridSize="10" guides="1" tooltips="1" connect="1" arrows="1" fold="1" page="1" pageScale="1" pageWidth="827" pageHeight="1169" math="0" shadow="0">
      <root>
        <mxCell id="0" />
        <mxCell id="1" parent="0" />
        <mxCell id="G5NhXKjENNBlB8OunhvY-22" style="edgeStyle=orthogonalEdgeStyle;rounded=0;orthogonalLoop=1;jettySize=auto;html=1;exitX=0.5;exitY=1;exitDx=0;exitDy=0;entryX=0.5;entryY=0;entryDx=0;entryDy=0;" edge="1" parent="1" source="G5NhXKjENNBlB8OunhvY-1" target="G5NhXKjENNBlB8OunhvY-2">
          <mxGeometry relative="1" as="geometry" />
        </mxCell>
        <mxCell id="G5NhXKjENNBlB8OunhvY-1" value="Начало" style="rounded=1;whiteSpace=wrap;html=1;arcSize=50;" vertex="1" parent="1">
          <mxGeometry x="294" y="20" width="120" height="60" as="geometry" />
        </mxCell>
        <mxCell id="G5NhXKjENNBlB8OunhvY-2" value="Ввод текста text" style="shape=parallelogram;perimeter=parallelogramPerimeter;whiteSpace=wrap;html=1;fixedSize=1;" vertex="1" parent="1">
          <mxGeometry x="294" y="100" width="120" height="40" as="geometry" />
        </mxCell>
        <mxCell id="G5NhXKjENNBlB8OunhvY-25" style="edgeStyle=orthogonalEdgeStyle;rounded=0;orthogonalLoop=1;jettySize=auto;html=1;exitX=0.5;exitY=1;exitDx=0;exitDy=0;entryX=0.5;entryY=0;entryDx=0;entryDy=0;" edge="1" parent="1" source="G5NhXKjENNBlB8OunhvY-3" target="G5NhXKjENNBlB8OunhvY-4">
          <mxGeometry relative="1" as="geometry" />
        </mxCell>
        <mxCell id="G5NhXKjENNBlB8OunhvY-3" value="Ввод ключа key" style="shape=parallelogram;perimeter=parallelogramPerimeter;whiteSpace=wrap;html=1;fixedSize=1;" vertex="1" parent="1">
          <mxGeometry x="290" y="160" width="120" height="30" as="geometry" />
        </mxCell>
        <mxCell id="G5NhXKjENNBlB8OunhvY-27" style="edgeStyle=orthogonalEdgeStyle;rounded=0;orthogonalLoop=1;jettySize=auto;html=1;exitX=0.5;exitY=1;exitDx=0;exitDy=0;entryX=0.5;entryY=0;entryDx=0;entryDy=0;" edge="1" parent="1" source="G5NhXKjENNBlB8OunhvY-4" target="G5NhXKjENNBlB8OunhvY-5">
          <mxGeometry relative="1" as="geometry" />
        </mxCell>
        <mxCell id="G5NhXKjENNBlB8OunhvY-4" value="Начало цикла" style="shape=loopLimit;whiteSpace=wrap;html=1;" vertex="1" parent="1">
          <mxGeometry x="300" y="210" width="100" height="50" as="geometry" />
        </mxCell>
        <mxCell id="G5NhXKjENNBlB8OunhvY-28" value="" style="edgeStyle=orthogonalEdgeStyle;rounded=0;orthogonalLoop=1;jettySize=auto;html=1;" edge="1" parent="1" source="G5NhXKjENNBlB8OunhvY-5" target="G5NhXKjENNBlB8OunhvY-7">
          <mxGeometry relative="1" as="geometry" />
        </mxCell>
        <mxCell id="G5NhXKjENNBlB8OunhvY-5" value="Берём букву с индексом ix из text" style="rounded=0;whiteSpace=wrap;html=1;" vertex="1" parent="1">
          <mxGeometry x="290" y="280" width="120" height="40" as="geometry" />
        </mxCell>
        <mxCell id="G5NhXKjENNBlB8OunhvY-30" value="" style="edgeStyle=orthogonalEdgeStyle;rounded=0;orthogonalLoop=1;jettySize=auto;html=1;" edge="1" parent="1" source="G5NhXKjENNBlB8OunhvY-6" target="G5NhXKjENNBlB8OunhvY-8">
          <mxGeometry relative="1" as="geometry" />
        </mxCell>
        <mxCell id="G5NhXKjENNBlB8OunhvY-6" value="Записываем в результат &lt;b&gt;res&lt;/b&gt;&amp;nbsp;букву из алфавита с индексом i + key[i%len(key)%len(alphabet)" style="rounded=0;whiteSpace=wrap;html=1;" vertex="1" parent="1">
          <mxGeometry x="212" y="370" width="276" height="60" as="geometry" />
        </mxCell>
        <mxCell id="G5NhXKjENNBlB8OunhvY-29" value="" style="edgeStyle=orthogonalEdgeStyle;rounded=0;orthogonalLoop=1;jettySize=auto;html=1;" edge="1" parent="1" source="G5NhXKjENNBlB8OunhvY-7" target="G5NhXKjENNBlB8OunhvY-6">
          <mxGeometry relative="1" as="geometry" />
        </mxCell>
        <mxCell id="G5NhXKjENNBlB8OunhvY-7" value="Находим номер буквы в алфавите&amp;nbsp;" style="rounded=0;whiteSpace=wrap;html=1;" vertex="1" parent="1">
          <mxGeometry x="235" y="330" width="230" height="30" as="geometry" />
        </mxCell>
        <mxCell id="G5NhXKjENNBlB8OunhvY-31" style="edgeStyle=orthogonalEdgeStyle;rounded=0;orthogonalLoop=1;jettySize=auto;html=1;entryX=0;entryY=0.5;entryDx=0;entryDy=0;" edge="1" parent="1" source="G5NhXKjENNBlB8OunhvY-8" target="G5NhXKjENNBlB8OunhvY-5">
          <mxGeometry relative="1" as="geometry">
            <Array as="points">
              <mxPoint x="170" y="480" />
              <mxPoint x="170" y="300" />
            </Array>
          </mxGeometry>
        </mxCell>
        <mxCell id="G5NhXKjENNBlB8OunhvY-8" value="Последняя буква text" style="rhombus;whiteSpace=wrap;html=1;" vertex="1" parent="1">
          <mxGeometry x="310" y="440" width="80" height="80" as="geometry" />
        </mxCell>
        <mxCell id="G5NhXKjENNBlB8OunhvY-36" value="" style="edgeStyle=orthogonalEdgeStyle;rounded=0;orthogonalLoop=1;jettySize=auto;html=1;" edge="1" parent="1" source="G5NhXKjENNBlB8OunhvY-9" target="G5NhXKjENNBlB8OunhvY-16">
          <mxGeometry relative="1" as="geometry" />
        </mxCell>
        <mxCell id="G5NhXKjENNBlB8OunhvY-9" value="" style="shape=loopLimit;whiteSpace=wrap;html=1;rotation=-180;" vertex="1" parent="1">
          <mxGeometry x="300" y="540" width="100" height="55" as="geometry" />
        </mxCell>
        <mxCell id="G5NhXKjENNBlB8OunhvY-38" style="edgeStyle=orthogonalEdgeStyle;rounded=0;orthogonalLoop=1;jettySize=auto;html=1;" edge="1" parent="1" source="G5NhXKjENNBlB8OunhvY-10" target="G5NhXKjENNBlB8OunhvY-11">
          <mxGeometry relative="1" as="geometry" />
        </mxCell>
        <mxCell id="G5NhXKjENNBlB8OunhvY-10" value="Начало цикла" style="shape=loopLimit;whiteSpace=wrap;html=1;" vertex="1" parent="1">
          <mxGeometry x="300" y="670" width="100" height="40" as="geometry" />
        </mxCell>
        <mxCell id="G5NhXKjENNBlB8OunhvY-39" style="edgeStyle=orthogonalEdgeStyle;rounded=0;orthogonalLoop=1;jettySize=auto;html=1;entryX=0.5;entryY=0;entryDx=0;entryDy=0;" edge="1" parent="1" source="G5NhXKjENNBlB8OunhvY-11" target="G5NhXKjENNBlB8OunhvY-13">
          <mxGeometry relative="1" as="geometry" />
        </mxCell>
        <mxCell id="G5NhXKjENNBlB8OunhvY-11" value="Берём букву с индексом ix из text" style="rounded=0;whiteSpace=wrap;html=1;" vertex="1" parent="1">
          <mxGeometry x="290" y="730" width="120" height="40" as="geometry" />
        </mxCell>
        <mxCell id="G5NhXKjENNBlB8OunhvY-41" style="edgeStyle=orthogonalEdgeStyle;rounded=0;orthogonalLoop=1;jettySize=auto;html=1;entryX=0.5;entryY=0;entryDx=0;entryDy=0;" edge="1" parent="1" source="G5NhXKjENNBlB8OunhvY-12" target="G5NhXKjENNBlB8OunhvY-14">
          <mxGeometry relative="1" as="geometry" />
        </mxCell>
        <mxCell id="G5NhXKjENNBlB8OunhvY-12" value="Записываем в результат &lt;b&gt;res&lt;/b&gt;&amp;nbsp;букву из алфавита с индексом i + key[i%len(key)%len(alphabet)" style="rounded=0;whiteSpace=wrap;html=1;" vertex="1" parent="1">
          <mxGeometry x="212" y="840" width="276" height="60" as="geometry" />
        </mxCell>
        <mxCell id="G5NhXKjENNBlB8OunhvY-40" style="edgeStyle=orthogonalEdgeStyle;rounded=0;orthogonalLoop=1;jettySize=auto;html=1;entryX=0.5;entryY=0;entryDx=0;entryDy=0;" edge="1" parent="1" source="G5NhXKjENNBlB8OunhvY-13" target="G5NhXKjENNBlB8OunhvY-12">
          <mxGeometry relative="1" as="geometry" />
        </mxCell>
        <mxCell id="G5NhXKjENNBlB8OunhvY-13" value="Находим номер буквы в алфавите&amp;nbsp;" style="rounded=0;whiteSpace=wrap;html=1;" vertex="1" parent="1">
          <mxGeometry x="235" y="790" width="230" height="30" as="geometry" />
        </mxCell>
        <mxCell id="G5NhXKjENNBlB8OunhvY-42" style="edgeStyle=orthogonalEdgeStyle;rounded=0;orthogonalLoop=1;jettySize=auto;html=1;entryX=0;entryY=0.5;entryDx=0;entryDy=0;" edge="1" parent="1" source="G5NhXKjENNBlB8OunhvY-14" target="G5NhXKjENNBlB8OunhvY-11">
          <mxGeometry relative="1" as="geometry">
            <Array as="points">
              <mxPoint x="200" y="950" />
              <mxPoint x="200" y="750" />
            </Array>
          </mxGeometry>
        </mxCell>
        <mxCell id="G5NhXKjENNBlB8OunhvY-44" style="edgeStyle=orthogonalEdgeStyle;rounded=0;orthogonalLoop=1;jettySize=auto;html=1;entryX=0.5;entryY=1;entryDx=0;entryDy=0;" edge="1" parent="1" source="G5NhXKjENNBlB8OunhvY-14" target="G5NhXKjENNBlB8OunhvY-15">
          <mxGeometry relative="1" as="geometry" />
        </mxCell>
        <mxCell id="G5NhXKjENNBlB8OunhvY-14" value="Последняя буква text" style="rhombus;whiteSpace=wrap;html=1;" vertex="1" parent="1">
          <mxGeometry x="310" y="910" width="80" height="80" as="geometry" />
        </mxCell>
        <mxCell id="G5NhXKjENNBlB8OunhvY-15" value="" style="shape=loopLimit;whiteSpace=wrap;html=1;rotation=-180;" vertex="1" parent="1">
          <mxGeometry x="300" y="1010" width="100" height="45" as="geometry" />
        </mxCell>
        <mxCell id="G5NhXKjENNBlB8OunhvY-37" value="" style="edgeStyle=orthogonalEdgeStyle;rounded=0;orthogonalLoop=1;jettySize=auto;html=1;" edge="1" parent="1" source="G5NhXKjENNBlB8OunhvY-16" target="G5NhXKjENNBlB8OunhvY-10">
          <mxGeometry relative="1" as="geometry" />
        </mxCell>
        <mxCell id="G5NhXKjENNBlB8OunhvY-16" value="Выводим результат шифрования" style="rounded=0;whiteSpace=wrap;html=1;" vertex="1" parent="1">
          <mxGeometry x="218" y="610" width="264" height="40" as="geometry" />
        </mxCell>
        <mxCell id="G5NhXKjENNBlB8OunhvY-17" value="Конец цикла" style="text;html=1;align=center;verticalAlign=middle;whiteSpace=wrap;rounded=0;" vertex="1" parent="1">
          <mxGeometry x="305" y="550" width="90" height="30" as="geometry" />
        </mxCell>
        <mxCell id="G5NhXKjENNBlB8OunhvY-46" value="" style="edgeStyle=orthogonalEdgeStyle;rounded=0;orthogonalLoop=1;jettySize=auto;html=1;" edge="1" parent="1" source="G5NhXKjENNBlB8OunhvY-18" target="G5NhXKjENNBlB8OunhvY-19">
          <mxGeometry relative="1" as="geometry" />
        </mxCell>
        <mxCell id="G5NhXKjENNBlB8OunhvY-18" value="Конец цикла" style="text;html=1;align=center;verticalAlign=middle;whiteSpace=wrap;rounded=0;" vertex="1" parent="1">
          <mxGeometry x="285" y="1017.5" width="130" height="30" as="geometry" />
        </mxCell>
        <mxCell id="G5NhXKjENNBlB8OunhvY-47" value="" style="edgeStyle=orthogonalEdgeStyle;rounded=0;orthogonalLoop=1;jettySize=auto;html=1;" edge="1" parent="1" source="G5NhXKjENNBlB8OunhvY-19" target="G5NhXKjENNBlB8OunhvY-20">
          <mxGeometry relative="1" as="geometry" />
        </mxCell>
        <mxCell id="G5NhXKjENNBlB8OunhvY-19" value="Выводим результат расшифрования" style="rounded=0;whiteSpace=wrap;html=1;" vertex="1" parent="1">
          <mxGeometry x="290" y="1070" width="120" height="60" as="geometry" />
        </mxCell>
        <mxCell id="G5NhXKjENNBlB8OunhvY-20" value="Конец" style="rounded=1;whiteSpace=wrap;html=1;arcSize=50;" vertex="1" parent="1">
          <mxGeometry x="290" y="1150" width="120" height="60" as="geometry" />
        </mxCell>
        <mxCell id="G5NhXKjENNBlB8OunhvY-24" style="edgeStyle=orthogonalEdgeStyle;rounded=0;orthogonalLoop=1;jettySize=auto;html=1;exitX=0.5;exitY=1;exitDx=0;exitDy=0;entryX=0.558;entryY=-0.033;entryDx=0;entryDy=0;entryPerimeter=0;" edge="1" parent="1" source="G5NhXKjENNBlB8OunhvY-2" target="G5NhXKjENNBlB8OunhvY-3">
          <mxGeometry relative="1" as="geometry" />
        </mxCell>
        <mxCell id="G5NhXKjENNBlB8OunhvY-32" value="Нет" style="text;html=1;align=center;verticalAlign=middle;whiteSpace=wrap;rounded=0;" vertex="1" parent="1">
          <mxGeometry x="264" y="450" width="60" height="30" as="geometry" />
        </mxCell>
        <mxCell id="G5NhXKjENNBlB8OunhvY-34" value="" style="endArrow=classic;html=1;rounded=0;entryX=0.5;entryY=1;entryDx=0;entryDy=0;exitX=0.5;exitY=1;exitDx=0;exitDy=0;" edge="1" parent="1" source="G5NhXKjENNBlB8OunhvY-8" target="G5NhXKjENNBlB8OunhvY-9">
          <mxGeometry width="50" height="50" relative="1" as="geometry">
            <mxPoint x="200" y="640" as="sourcePoint" />
            <mxPoint x="250" y="590" as="targetPoint" />
          </mxGeometry>
        </mxCell>
        <mxCell id="G5NhXKjENNBlB8OunhvY-35" value="Да" style="text;html=1;align=center;verticalAlign=middle;whiteSpace=wrap;rounded=0;" vertex="1" parent="1">
          <mxGeometry x="294" y="510" width="60" height="30" as="geometry" />
        </mxCell>
        <mxCell id="G5NhXKjENNBlB8OunhvY-43" value="Нет" style="text;html=1;align=center;verticalAlign=middle;whiteSpace=wrap;rounded=0;" vertex="1" parent="1">
          <mxGeometry x="264" y="920" width="60" height="30" as="geometry" />
        </mxCell>
        <mxCell id="G5NhXKjENNBlB8OunhvY-45" value="Да" style="text;html=1;align=center;verticalAlign=middle;whiteSpace=wrap;rounded=0;" vertex="1" parent="1">
          <mxGeometry x="344" y="980" width="60" height="30" as="geometry" />
        </mxCell>
      </root>
    </mxGraphModel>
  </diagram>
</mxfile>
